<svg width="24" height="25" viewBox="0 0 24 25" fill="none" xmlns="http://www.w3.org/2000/svg">
<g clip-path="url(#clip0_521_748)">
<g clip-path="url(#clip1_521_748)">
<path d="M12 2.663C15.204 2.663 15.584 2.675 16.85 2.733C20.102 2.881 21.621 4.424 21.769 7.652C21.827 8.917 21.838 9.297 21.838 12.501C21.838 15.706 21.826 16.085 21.769 17.35C21.62 20.575 20.105 22.121 16.85 22.269C15.584 22.327 15.206 22.339 12 22.339C8.796 22.339 8.416 22.327 7.151 22.269C3.891 22.12 2.38 20.57 2.232 17.349C2.174 16.084 2.162 15.705 2.162 12.5C2.162 9.296 2.175 8.917 2.232 7.651C2.381 4.424 3.896 2.88 7.151 2.732C8.417 2.675 8.796 2.663 12 2.663ZM12 0.5C8.741 0.5 8.333 0.514 7.053 0.572C2.695 0.772 0.273 3.19 0.073 7.552C0.014 8.833 0 9.241 0 12.5C0 15.759 0.014 16.168 0.072 17.448C0.272 21.806 2.69 24.228 7.052 24.428C8.333 24.486 8.741 24.5 12 24.5C15.259 24.5 15.668 24.486 16.948 24.428C21.302 24.228 23.73 21.81 23.927 17.448C23.986 16.168 24 15.759 24 12.5C24 9.241 23.986 8.833 23.928 7.553C23.732 3.199 21.311 0.773 16.949 0.573C15.668 0.514 15.259 0.5 12 0.5ZM12 6.338C8.597 6.338 5.838 9.097 5.838 12.5C5.838 15.903 8.597 18.663 12 18.663C15.403 18.663 18.162 15.904 18.162 12.5C18.162 9.097 15.403 6.338 12 6.338ZM12 16.5C9.791 16.5 8 14.71 8 12.5C8 10.291 9.791 8.5 12 8.5C14.209 8.5 16 10.291 16 12.5C16 14.71 14.209 16.5 12 16.5ZM18.406 4.655C17.61 4.655 16.965 5.3 16.965 6.095C16.965 6.89 17.61 7.535 18.406 7.535C19.201 7.535 19.845 6.89 19.845 6.095C19.845 5.3 19.201 4.655 18.406 4.655Z" fill="black"/>
</g>
</g>
<defs>
<clipPath id="clip0_521_748">
<rect width="24" height="24" fill="white" transform="translate(0 0.5)"/>
</clipPath>
<clipPath id="clip1_521_748">
<rect width="24" height="24" fill="white" transform="translate(0 0.5)"/>
</clipPath>
</defs>
</svg>
